<?xml version="1.0" encoding="utf-8"?>
<!-- Generator: Adobe Illustrator 26.0.1, SVG Export Plug-In . SVG Version: 6.00 Build 0)  -->
<svg version="1.1" id="Layer_1" xmlns="http://www.w3.org/2000/svg" xmlns:xlink="http://www.w3.org/1999/xlink" x="0px" y="0px"
	 viewBox="0 0 614.17 400.77" style="enable-background:new 0 0 614.17 400.77;" xml:space="preserve">
<style type="text/css">
	.st0{fill:#ED1C24;}
	.st1{fill:#F1BD34;}
	.st2{fill:#91B83E;}
	.st3{fill:#53C7DF;}
	.st4{fill:#E6E082;}
	.st5{fill:#BB6490;}
	.st6{fill:#ECE38B;}
	.st7{fill:#DD1B56;}
	.st8{fill:#00ACB1;}
	.st9{fill:#E7A423;}
	.st10{fill:#E5519C;}
	.st11{fill:#E0559C;}
	.st12{fill:#6796CE;}
	.st13{fill:#D9569C;}
	.st14{fill:#C66292;}
	.st15{fill:#5E9DD5;}
	.st16{fill:#BF568E;}
	.st17{fill:#B16A92;}
	.st18{fill:#EDAC4B;}
	.st19{fill:#E3B364;}
	.st20{fill:#FCF3E2;}
	.st21{fill:#E1B470;}
	.st22{fill:#ECAC51;}
	.st23{fill:#F2A94D;}
	.st24{fill:#F4A84B;}
	.st25{fill:#FFFFFF;}
	.st26{fill-rule:evenodd;clip-rule:evenodd;fill:#FFFFFF;}
	.st27{fill-rule:evenodd;clip-rule:evenodd;fill:#6596CF;}
	.st28{fill-rule:evenodd;clip-rule:evenodd;fill:#E2509D;}
	.st29{fill-rule:evenodd;clip-rule:evenodd;fill:#EBDF5C;}
	.st30{fill:#F39020;}
	.st31{fill:#49C1BE;}
	.st32{fill:#7AC143;}
	.st33{fill-rule:evenodd;clip-rule:evenodd;fill:#F39020;}
</style>
<g>
	<circle class="st30" cx="244.32" cy="234.29" r="32.25"/>
	<circle class="st10" cx="335.02" cy="233.08" r="32.25"/>
	<path class="st30" d="M237.01,277.75c-3.13,0-6.23-0.13-9.33-0.38c-3.09-0.25-6.17-0.8-9.23-1.63c-2.68-0.7-4.93-1.91-6.74-3.64
		c-1.82-1.72-3.27-3.83-4.35-6.31c-1.15-2.68-2.17-5.74-3.06-9.18c-0.89-3.44-1.67-7.11-2.34-11c-0.67-3.89-1.24-7.89-1.72-12.01
		c-0.48-4.11-0.86-8.15-1.15-12.1c-0.29-3.95-0.49-7.75-0.62-11.38c-0.13-3.63-0.19-6.92-0.19-9.85c0-1.53,0.03-3.68,0.1-6.46
		c0.06-2.77,0.19-5.82,0.38-9.14c0.19-3.32,0.51-6.73,0.96-10.24c0.45-3.51,1.04-6.78,1.77-9.81c0.73-3.03,1.67-5.64,2.82-7.84
		s2.55-3.65,4.21-4.35c1.34-0.57,2.74-0.97,4.21-1.2c1.47-0.22,2.93-0.33,4.4-0.33c2.49,0,4.7,0.13,6.65,0.38
		c1.94,0.26,3.6,0.83,4.97,1.72c1.37,0.89,2.42,2.17,3.16,3.83c0.73,1.66,1.1,3.89,1.1,6.7c0,1.79-0.14,3.54-0.43,5.26
		c-0.29,1.72-0.61,3.44-0.96,5.17c-0.35,1.72-0.67,3.44-0.96,5.17s-0.43,3.41-0.43,5.07c0,1.66,0.45,2.81,1.34,3.44
		c0.89,0.64,2.1,0.96,3.64,0.96c1.47,0,2.92-0.1,4.35-0.29s2.88-0.29,4.35-0.29c6.51,0,12.13,1.31,16.89,3.92
		c4.75,2.62,8.69,6.07,11.81,10.38c3.12,4.31,5.44,9.22,6.94,14.73c1.5,5.52,2.25,11.21,2.25,17.08c0,6.89-1.07,13.03-3.2,18.42
		c-2.14,5.39-5.17,9.95-9.09,13.68c-3.92,3.73-8.63,6.59-14.11,8.56C249.9,276.76,243.77,277.75,237.01,277.75z M239.79,247.9
		c1.66,0,3.11-0.61,4.35-1.82c1.24-1.21,2.28-2.68,3.11-4.4c0.83-1.72,1.43-3.52,1.82-5.4c0.38-1.88,0.57-3.49,0.57-4.83
		c0-1.34-0.14-2.79-0.43-4.35c-0.29-1.56-0.77-3-1.44-4.3c-0.67-1.31-1.56-2.39-2.68-3.25c-1.12-0.86-2.5-1.29-4.16-1.29
		c-2.04,0-3.27,0.5-3.68,1.48c-0.42,0.99-0.62,2.38-0.62,4.16c0,3.32,0.14,6.62,0.43,9.9c0.29,3.29,0.49,6.59,0.62,9.9
		c0,0.38,0.02,0.81,0.05,1.29c0.03,0.48,0.11,0.93,0.24,1.34c0.13,0.42,0.33,0.78,0.62,1.1C238.88,247.75,239.28,247.9,239.79,247.9
		z"/>
	<path class="st10" d="M330.86,277.75c-3.13,0-6.23-0.13-9.33-0.38c-3.09-0.25-6.17-0.8-9.23-1.63c-2.68-0.7-4.93-1.91-6.74-3.64
		c-1.82-1.72-3.27-3.83-4.35-6.31c-1.15-2.68-2.17-5.74-3.06-9.18c-0.89-3.44-1.67-7.11-2.34-11c-0.67-3.89-1.24-7.89-1.72-12.01
		c-0.48-4.11-0.86-8.15-1.15-12.1c-0.29-3.95-0.49-7.75-0.62-11.38c-0.13-3.63-0.19-6.92-0.19-9.85c0-1.53,0.03-3.68,0.1-6.46
		c0.06-2.77,0.19-5.82,0.38-9.14c0.19-3.32,0.51-6.73,0.96-10.24c0.45-3.51,1.04-6.78,1.77-9.81c0.73-3.03,1.67-5.64,2.82-7.84
		s2.55-3.65,4.21-4.35c1.34-0.57,2.74-0.97,4.21-1.2c1.47-0.22,2.93-0.33,4.4-0.33c2.49,0,4.7,0.13,6.65,0.38
		c1.94,0.26,3.6,0.83,4.97,1.72c1.37,0.89,2.42,2.17,3.16,3.83c0.73,1.66,1.1,3.89,1.1,6.7c0,1.79-0.14,3.54-0.43,5.26
		c-0.29,1.72-0.61,3.44-0.96,5.17c-0.35,1.72-0.67,3.44-0.96,5.17s-0.43,3.41-0.43,5.07c0,1.66,0.45,2.81,1.34,3.44
		c0.89,0.64,2.1,0.96,3.64,0.96c1.47,0,2.92-0.1,4.35-0.29s2.88-0.29,4.35-0.29c6.51,0,12.13,1.31,16.89,3.92
		c4.75,2.62,8.69,6.07,11.81,10.38c3.12,4.31,5.44,9.22,6.94,14.73c1.5,5.52,2.25,11.21,2.25,17.08c0,6.89-1.07,13.03-3.2,18.42
		c-2.14,5.39-5.17,9.95-9.09,13.68c-3.92,3.73-8.63,6.59-14.11,8.56C343.74,276.76,337.62,277.75,330.86,277.75z M333.64,247.9
		c1.66,0,3.11-0.61,4.35-1.82c1.24-1.21,2.28-2.68,3.11-4.4c0.83-1.72,1.43-3.52,1.82-5.4c0.38-1.88,0.57-3.49,0.57-4.83
		c0-1.34-0.14-2.79-0.43-4.35c-0.29-1.56-0.77-3-1.44-4.3c-0.67-1.31-1.56-2.39-2.68-3.25c-1.12-0.86-2.5-1.29-4.16-1.29
		c-2.04,0-3.27,0.5-3.68,1.48c-0.42,0.99-0.62,2.38-0.62,4.16c0,3.32,0.14,6.62,0.43,9.9c0.29,3.29,0.49,6.59,0.62,9.9
		c0,0.38,0.02,0.81,0.05,1.29c0.03,0.48,0.11,0.93,0.24,1.34c0.13,0.42,0.33,0.78,0.62,1.1C332.73,247.75,333.13,247.9,333.64,247.9
		z"/>
	<g>
		<path class="st26" d="M329.33,228.81c0,0,8.76,13.15,28.4,16.26c0,0,6.48-7.02,4.62-17.67c-1.86-10.64-13.65-20.47-22.91-19.55
			c-9.25,0.92-13.84,5.87-13.84,5.87s-6.16-2.38-10.19,0.8c-4.03,3.18-6.66,6.42-6.93,11.8c-0.27,5.38,1.28,8.34,1.28,8.34
			s3.56,1.66,10.19-0.32C326.59,232.37,329.33,228.81,329.33,228.81L329.33,228.81z"/>
		<path class="st26" d="M320.55,240.83c1.14,0.15,1.9,1.49,1.71,3c-0.2,1.51-1.28,2.62-2.41,2.47c-1.14-0.15-1.9-1.49-1.71-3
			C318.33,241.79,319.41,240.68,320.55,240.83L320.55,240.83z"/>
		<path class="st26" d="M343.7,245.04c1.14,0.15,1.9,1.49,1.71,3c-0.2,1.51-1.28,2.62-2.41,2.47c-1.14-0.15-1.9-1.49-1.71-3
			C341.48,246,342.56,244.89,343.7,245.04L343.7,245.04z"/>
		<path class="st25" d="M312.07,243.08c0.13,0.52,1.78,6.75,4.9,11.23c1.65,2.37,4.53,4.46,8.09,5.65c3.2,1.08,6.94,1.43,10.83,0.63
			c8.37-1.71,15.38-9.04,15.4-9.06c0.43-0.45,1.15-0.47,1.6-0.03c0.13,0.12,0.22,0.27,0.28,0.43l0,0c0,0.01,0.66,1.95,4.31,1.72
			c0.57-0.04,1.05-0.19,1.45-0.43c0.69-0.41,1.17-1.1,1.47-1.89c0.32-0.85,0.44-1.79,0.39-2.63c-0.04-0.67-0.18-1.24-0.4-1.6
			c-0.79-1.33-2.4-0.93-2.41-0.93c-0.61,0.14-1.22-0.24-1.36-0.85c-0.09-0.38,0.02-0.76,0.27-1.02l0,0
			c0.02-0.02,6.11-6.62,4.34-16.7c-0.88-5.02-4.1-9.86-8.21-13.37c-4.13-3.53-9.13-5.68-13.46-5.25
			c-8.83,0.88-13.12,5.51-13.13,5.53c-0.34,0.35-0.84,0.45-1.27,0.26c-0.54-0.2-5.7-1.99-9.04,0.64c-1.92,1.52-3.5,3.04-4.62,4.8
			c-1.09,1.72-1.75,3.69-1.88,6.17c-0.25,5.07,1.15,7.75,1.16,7.76c0.29,0.56,0.06,1.25-0.5,1.53c-0.34,0.18-0.73,0.16-1.05-0.01
			c-0.2-0.09-1.38-0.54-2.12,0.51c-0.63,0.89-1.04,2.67-0.89,4.38c0.11,1.27,0.53,2.46,1.42,3.11c1.51,1.1,2.26-0.76,2.26-0.76
			c0.23-0.58,0.89-0.87,1.47-0.64C311.75,242.4,312,242.72,312.07,243.08L312.07,243.08z M315.11,255.61
			c-2.28-3.27-3.81-7.37-4.61-9.84c-0.94,0.73-2.33,1.09-4.18-0.26c-1.49-1.08-2.19-2.88-2.35-4.75c-0.19-2.23,0.4-4.63,1.3-5.9
			c0.83-1.17,1.87-1.56,2.79-1.63c-0.42-1.51-0.85-3.87-0.7-6.97c0.15-2.9,0.93-5.23,2.23-7.27c1.27-2,3.02-3.69,5.13-5.36
			c3.67-2.9,8.77-1.75,10.6-1.2c1.5-1.35,6.18-4.93,14.02-5.71c4.98-0.49,10.59,1.88,15.17,5.78c4.48,3.83,8,9.15,8.97,14.7
			c1.39,7.96-1.66,14-3.55,16.84c0.86,0.25,1.77,0.79,2.43,1.9c0.39,0.66,0.64,1.59,0.71,2.61c0.07,1.14-0.08,2.42-0.52,3.58
			c-0.47,1.23-1.26,2.34-2.44,3.04c-0.69,0.41-1.51,0.68-2.46,0.74c-3.08,0.19-4.8-0.89-5.7-1.85c-2.33,2.15-8.47,7.29-15.59,8.75
			c-4.31,0.88-8.45,0.49-12-0.7C320.31,260.76,317.03,258.36,315.11,255.61L315.11,255.61z"/>
		<path class="st25" d="M309.31,235.7c-0.57-0.26-0.83-0.93-0.57-1.5c0.26-0.57,0.93-0.83,1.5-0.57c0.01,0,3.18,1.48,9.4-0.37
			c6.28-1.87,8.79-5.14,8.8-5.15c0.39-0.49,1.1-0.58,1.59-0.2c0.09,0.07,0.17,0.16,0.24,0.25l0,0c0.02,0.04,8.49,12.75,27.63,15.78
			c0.62,0.1,1.04,0.68,0.95,1.3c-0.1,0.62-0.68,1.04-1.3,0.95c-16.65-2.64-25.68-12.34-28.33-15.64c-1.38,1.29-4.26,3.48-8.94,4.87
			C313.25,237.53,309.32,235.7,309.31,235.7L309.31,235.7z"/>
		<path class="st25" d="M323.26,250.16c-0.23-0.58,0.06-1.24,0.64-1.47c0.58-0.23,1.24,0.06,1.47,0.64
			c0.01,0.02,2.56,6.67,10.48,3.06c0.57-0.26,1.25-0.01,1.51,0.56c0.26,0.57,0.01,1.25-0.56,1.51
			C326.68,259.07,323.27,250.18,323.26,250.16L323.26,250.16z"/>
		<path class="st25" d="M331.71,245.26c-0.62-0.1-1.04-0.68-0.95-1.3c0.1-0.62,0.68-1.04,1.3-0.95c2.09,0.34,3.25,1.43,3.66,2.64
			c0.22,0.64,0.23,1.31,0.05,1.93c-0.18,0.61-0.53,1.17-1.04,1.61l0,0c-1,0.85-2.58,1.21-4.48,0.44c-0.58-0.24-0.86-0.9-0.62-1.48
			c0.24-0.58,0.9-0.86,1.48-0.62c0.99,0.41,1.73,0.29,2.15-0.07l0,0l0,0c0.16-0.14,0.28-0.32,0.33-0.51
			c0.05-0.18,0.05-0.38-0.01-0.57C333.41,245.9,332.83,245.44,331.71,245.26L331.71,245.26z"/>
	</g>
	<g>
		<path class="st25" d="M261.87,224.13c0.01,0,2.89-2.08,5.35,0.37c1.15,1.15,2.19,3.51,2.38,5.83c0.16,1.94-0.23,3.91-1.57,5.29
			c-1.67,1.72-3.16,1.6-4.25,1.02c-0.38,2.67-1.23,7.15-2.99,10.92c-1.48,3.17-4.44,6.22-8.33,8.32c-3.43,1.85-7.62,2.99-12.21,2.85
			c-7.58-0.23-14.81-4.43-17.57-6.23c-0.76,1.15-2.33,2.56-5.52,2.91c-0.99,0.11-1.88-0.02-2.66-0.32
			c-1.34-0.51-2.35-1.51-3.04-2.69c-0.66-1.12-1.05-2.41-1.17-3.59c-0.11-1.06-0.02-2.06,0.26-2.81c1.09-2.85,4.03-2.92,4.59-2.91
			l0.98-0.06l0.37-6.21c0.03-0.51,0.38-0.93,0.84-1.07l38.61-13.48c0.5-0.17,1.03,0,1.33,0.4l2.46,3L261.87,224.13L261.87,224.13
			L261.87,224.13L261.87,224.13z M265.55,226.18c-1.04-1.03-2.31-0.12-2.31-0.12l0,0l-3.02,2.18c-0.5,0.38-1.22,0.29-1.62-0.2
			l-2.67-3.25l-37.14,12.96l-0.39,6.47h0c-0.03,0.59-0.51,1.08-1.11,1.11l-2.04,0.12c-0.07,0.01-0.14,0.01-0.21,0
			c0,0-1.72-0.12-2.29,1.38c-0.16,0.41-0.2,1.02-0.13,1.71c0.09,0.87,0.38,1.82,0.86,2.63c0.44,0.75,1.06,1.38,1.85,1.68
			c0.45,0.17,0.97,0.24,1.57,0.18c3.53-0.38,4.05-2.22,4.11-2.47c0.03-0.19,0.1-0.38,0.22-0.54c0.39-0.53,1.13-0.64,1.66-0.26
			c0.02,0.02,8.53,6.31,17.42,6.58c4.14,0.13,7.92-0.9,11.02-2.57c3.45-1.86,6.04-4.51,7.31-7.24c2.51-5.36,3.04-12.43,3.04-12.45h0
			c0.03-0.36,0.22-0.7,0.54-0.9c0.55-0.35,1.28-0.19,1.64,0.36c0,0,1.12,1.8,2.47,0.41c0.79-0.82,1.02-2.12,0.91-3.44
			C267.09,228.74,266.35,226.98,265.55,226.18L265.55,226.18z"/>
		<path class="st25" d="M249.12,242.93c0.13-0.64,0.76-1.05,1.4-0.92c0.64,0.13,1.05,0.76,0.92,1.4c0,0.03-1.93,9.76-13.14,6.82
			c-0.63-0.16-1.01-0.81-0.85-1.44c0.16-0.63,0.81-1.01,1.44-0.85C247.68,250.23,249.12,242.95,249.12,242.93L249.12,242.93z"/>
		<path class="st25" d="M241.19,239.84c-0.58,0.29-1.3,0.06-1.59-0.52c-0.3-0.58-0.06-1.3,0.52-1.59c1.96-0.99,3.61-0.79,4.7-0.02
			c0.58,0.41,0.99,0.97,1.22,1.6c0.23,0.63,0.27,1.32,0.11,2c-0.32,1.33-1.43,2.61-3.51,3.12c-0.64,0.16-1.28-0.23-1.44-0.87
			c-0.16-0.64,0.23-1.28,0.87-1.44c1.09-0.27,1.64-0.82,1.78-1.37c0.05-0.22,0.04-0.44-0.03-0.63c-0.07-0.19-0.19-0.35-0.36-0.47
			C243.02,239.33,242.25,239.3,241.19,239.84L241.19,239.84z"/>
		<path class="st26" d="M252.21,232.51c1.01-0.08,1.93-0.11,2.75-0.5c1.01-0.48,0.95-0.03,0.69,0.41c-0.2,0.33-0.88,0.96-1.57,1.45
			c0.15,0.25,0.27,0.52,0.36,0.81c0.47,1.52-0.08,3.03-1.22,3.39c-1.14,0.35-2.45-0.59-2.92-2.11c-0.47-1.52,0.08-3.03,1.22-3.39
			C251.75,232.5,251.98,232.49,252.21,232.51L252.21,232.51z"/>
		<path class="st26" d="M229.3,240.66c1.01-0.08,1.93-0.11,2.75-0.5c1.01-0.48,0.95-0.03,0.69,0.4c-0.2,0.33-0.88,0.96-1.57,1.45
			c0.15,0.25,0.27,0.52,0.36,0.81c0.47,1.52-0.08,3.03-1.22,3.39c-1.14,0.35-2.45-0.59-2.92-2.11c-0.47-1.52,0.08-3.03,1.22-3.39
			C228.83,240.66,229.06,240.64,229.3,240.66L229.3,240.66z"/>
		<path class="st26" d="M220.86,261.24c-0.89-1.35-2.47-3.83-4.18-6.89c0.2,0.05,0.4,0.09,0.6,0.11c3.22,0.43,5.01-3.84,5.01-3.84
			s0.19,0.56,3.9,2.54c2.05,1.09,5.61,2.11,8.39,2.8c-5.82,2.53-9.95,4.7-11.83,5.74C222.09,262.07,221.27,261.87,220.86,261.24
			L220.86,261.24z M212.64,246.26c-1.43-3.3-2.61-6.73-3.13-9.89c-1.86-11.26,6.31-28.46,22.77-31.55
			c15.82-2.97,28.1,6.54,32.74,19.76c-2.95,0.36-5.49,3.04-5.49,3.04c-0.95-1.26-1.9-2.52-2.85-3.77
			c-13.03,4.29-26.07,8.58-39.1,12.87c0.06,1.57,0.12,3.14,0.19,4.7c-0.8,1.09-1.61,2.19-2.41,3.28
			C215.36,244.69,213.84,244.97,212.64,246.26L212.64,246.26z M267.98,234.65c1.41,5.14,2.21,8.55,2.61,10.36
			c0.09,0.41,0.01,0.81-0.24,1.15c-0.25,0.34-0.6,0.54-1.02,0.58c-2.6,0.23-7.67,0.72-9.94,1.11c1.84-5.4,3-12.82,3-12.82
			s2.23,0.62,3.34,0.99C266.16,236.17,267.03,235.52,267.98,234.65L267.98,234.65z"/>
	</g>
	<path class="st27" d="M371.29,151.42l-0.41,1.94c-0.12,0.59,0.12,1.16,0.63,1.47l1.69,1.04c0.51,0.32,0.76,0.9,0.62,1.49
		c-0.13,0.59-0.61,1.01-1.21,1.07l-1.98,0.21c-0.6,0.06-1.06,0.47-1.21,1.06l-0.47,1.93c-0.14,0.59-0.62,1-1.22,1.06
		c-0.6,0.05-1.15-0.27-1.39-0.82l-0.81-1.82c-0.24-0.55-0.78-0.87-1.38-0.82l-1.98,0.15c-0.6,0.05-1.14-0.28-1.38-0.84
		c-0.24-0.56-0.1-1.17,0.35-1.58l1.48-1.33c0.44-0.4,0.58-1.01,0.35-1.56l-0.76-1.83c-0.23-0.56-0.09-1.18,0.37-1.57
		c0.46-0.4,1.08-0.46,1.61-0.16l1.72,0.99c0.52,0.3,1.14,0.24,1.59-0.14l1.51-1.29c0.46-0.39,1.09-0.45,1.61-0.14
		C371.16,150.25,371.41,150.83,371.29,151.42L371.29,151.42z"/>
	<path class="st28" d="M353.37,161.69l1.16,2.51c0.35,0.76,1.1,1.19,1.93,1.12l2.75-0.25c0.84-0.08,1.6,0.37,1.94,1.14
		c0.34,0.77,0.17,1.63-0.45,2.21l-2.03,1.88c-0.61,0.57-0.79,1.42-0.46,2.18l1.09,2.54c0.33,0.77,0.14,1.64-0.48,2.2
		c-0.63,0.56-1.5,0.66-2.24,0.25l-2.42-1.35c-0.73-0.41-1.59-0.32-2.22,0.23l-2.08,1.82c-0.63,0.56-1.51,0.64-2.24,0.22
		c-0.73-0.42-1.09-1.22-0.93-2.05l0.54-2.71c0.16-0.82-0.19-1.61-0.91-2.04l-2.38-1.41c-0.73-0.43-1.08-1.24-0.9-2.07
		c0.18-0.82,0.83-1.42,1.67-1.52l2.75-0.33c0.83-0.1,1.48-0.68,1.66-1.49l0.61-2.7c0.19-0.82,0.85-1.41,1.69-1.5
		C352.25,160.49,353.02,160.93,353.37,161.69L353.37,161.69z"/>
	<path class="st33" d="M274.19,159.6l-0.83,3.91c-0.25,1.18,0.24,2.33,1.27,2.96l3.41,2.09c1.04,0.64,1.53,1.81,1.26,3
		c-0.27,1.19-1.22,2.04-2.43,2.16l-3.98,0.42c-1.2,0.12-2.14,0.95-2.43,2.12l-0.94,3.89c-0.29,1.18-1.25,2.02-2.46,2.13
		c-1.21,0.11-2.31-0.53-2.81-1.65l-1.63-3.65c-0.49-1.1-1.57-1.74-2.77-1.65l-3.99,0.31c-1.21,0.09-2.31-0.57-2.79-1.69
		c-0.48-1.12-0.21-2.37,0.7-3.18l2.97-2.68c0.9-0.81,1.18-2.04,0.71-3.15l-1.53-3.7c-0.47-1.13-0.18-2.37,0.74-3.17
		c0.92-0.8,2.19-0.93,3.24-0.32l3.46,2c1.04,0.6,2.29,0.49,3.21-0.3l3.04-2.59c0.93-0.79,2.2-0.9,3.24-0.28
		C273.93,157.24,274.44,158.41,274.19,159.6L274.19,159.6z"/>
</g>
</svg>
